<?xml version="1.0" encoding="UTF-8"?>
<svg xmlns="http://www.w3.org/2000/svg" xmlns:xlink="http://www.w3.org/1999/xlink" width="50px" height="50px" viewBox="0 0 50 50" version="1.1">
<g id="surface1">
<path style=" stroke:none;fill-rule:nonzero;fill:rgb(0%,0%,0%);fill-opacity:1;" d="M 25.210938 3.640625 C 25.128906 3.730469 25.101562 4.28125 25.121094 5.359375 L 25.148438 6.949219 L 25.75 6.949219 L 25.78125 5.308594 C 25.800781 4.058594 25.769531 3.648438 25.679688 3.578125 C 25.488281 3.460938 25.339844 3.480469 25.210938 3.640625 Z M 25.210938 3.640625 "/>
<path style=" stroke:none;fill-rule:nonzero;fill:rgb(0%,0%,0%);fill-opacity:1;" d="M 18.429688 4.46875 C 18.230469 4.539062 18.269531 4.839844 18.671875 6.25 C 19.058594 7.648438 19.128906 7.800781 19.398438 7.800781 C 19.839844 7.800781 19.839844 7.570312 19.410156 6.078125 C 18.921875 4.398438 18.851562 4.289062 18.429688 4.46875 Z M 18.429688 4.46875 "/>
<path style=" stroke:none;fill-rule:nonzero;fill:rgb(0%,0%,0%);fill-opacity:1;" d="M 33.070312 4.621094 C 32.988281 4.75 32.761719 5.441406 32.550781 6.171875 C 32.238281 7.261719 32.191406 7.519531 32.300781 7.648438 C 32.46875 7.851562 32.769531 7.839844 32.878906 7.621094 C 33.019531 7.359375 33.699219 4.941406 33.699219 4.71875 C 33.699219 4.539062 33.519531 4.398438 33.289062 4.398438 C 33.238281 4.398438 33.140625 4.5 33.070312 4.621094 Z M 33.070312 4.621094 "/>
<path style=" stroke:none;fill-rule:nonzero;fill:rgb(0%,0%,0%);fill-opacity:1;" d="M 12.089844 7.289062 L 11.859375 7.46875 L 12.710938 8.808594 C 13.410156 9.910156 13.601562 10.148438 13.789062 10.148438 C 13.921875 10.148438 14.070312 10.078125 14.128906 9.988281 C 14.210938 9.859375 14.058594 9.550781 13.410156 8.519531 C 12.960938 7.808594 12.53125 7.199219 12.449219 7.160156 C 12.371094 7.128906 12.210938 7.191406 12.089844 7.289062 Z M 12.089844 7.289062 "/>
<path style=" stroke:none;fill-rule:nonzero;fill:rgb(0%,0%,0%);fill-opacity:1;" d="M 39.421875 7.28125 C 39.308594 7.371094 38.898438 7.980469 38.488281 8.640625 C 37.921875 9.570312 37.789062 9.859375 37.871094 9.988281 C 37.929688 10.078125 38.078125 10.148438 38.210938 10.148438 C 38.398438 10.148438 38.578125 9.921875 39.21875 8.898438 C 39.648438 8.21875 40 7.578125 40 7.480469 C 40 7.199219 39.648438 7.070312 39.421875 7.28125 Z M 39.421875 7.28125 "/>
<path style=" stroke:none;fill-rule:nonzero;fill:rgb(0%,0%,0%);fill-opacity:1;" d="M 6.699219 11.691406 C 6.648438 11.800781 6.601562 11.910156 6.601562 11.941406 C 6.601562 12.078125 8.941406 14.101562 9.101562 14.101562 C 9.261719 14.101562 9.5 13.839844 9.5 13.660156 C 9.5 13.53125 7.128906 11.5 6.980469 11.5 C 6.890625 11.5 6.761719 11.589844 6.699219 11.691406 Z M 6.699219 11.691406 "/>
<path style=" stroke:none;fill-rule:nonzero;fill:rgb(0%,0%,0%);fill-opacity:1;" d="M 43.671875 12.558594 C 43.019531 13.140625 42.5 13.628906 42.5 13.660156 C 42.5 13.828125 42.738281 14.101562 42.890625 14.101562 C 43.050781 14.101562 45.398438 12.070312 45.398438 11.941406 C 45.398438 11.769531 45.160156 11.5 45.011719 11.5 C 44.910156 11.5 44.308594 11.96875 43.671875 12.558594 Z M 43.671875 12.558594 "/>
<path style=" stroke:none;fill-rule:nonzero;fill:rgb(0%,0%,0%);fill-opacity:1;" d="M 23.140625 12.871094 C 21.800781 14.351562 20.300781 16.410156 19.710938 17.570312 L 19.5 17.988281 L 18.128906 17.300781 C 15.949219 16.21875 12.769531 15.140625 12.421875 15.371094 C 12.21875 15.488281 12.140625 15.78125 12.269531 15.910156 C 12.320312 15.960938 12.910156 16.160156 13.578125 16.351562 C 15.148438 16.789062 16.328125 17.25 17.828125 18 C 18.488281 18.328125 19.050781 18.621094 19.078125 18.640625 C 19.101562 18.671875 18.960938 19.078125 18.761719 19.570312 C 18 21.480469 17.621094 23.578125 17.738281 25.261719 L 17.800781 26.179688 L 17.03125 25.738281 C 15.140625 24.671875 12.699219 24 10.640625 24 C 10.261719 24 10.109375 23.960938 10.058594 23.839844 C 9.890625 23.390625 10.101562 19.78125 10.390625 18.261719 C 10.441406 17.988281 10.460938 17.710938 10.429688 17.640625 C 10.351562 17.441406 9.988281 17.359375 9.851562 17.511719 C 9.609375 17.78125 9.371094 19.699219 9.320312 21.859375 L 9.28125 23.980469 L 8.160156 24.101562 C 6.519531 24.28125 5.078125 24.550781 3.691406 24.960938 C 2.359375 25.339844 2.140625 25.460938 2.238281 25.78125 C 2.339844 26.101562 2.539062 26.109375 3.421875 25.839844 C 4.941406 25.390625 6.671875 25.03125 8.28125 24.851562 C 9.269531 24.738281 11.601562 24.789062 12.570312 24.949219 C 14.300781 25.230469 16.359375 26.070312 17.539062 26.96875 C 17.988281 27.320312 18.050781 27.410156 18.261719 28.160156 C 18.53125 29.101562 19.019531 30.378906 19.328125 30.929688 C 19.480469 31.199219 19.601562 31.300781 19.738281 31.28125 C 20.171875 31.210938 20.160156 30.96875 19.679688 29.828125 C 18.839844 27.859375 18.5 26.351562 18.5 24.601562 C 18.5 21.089844 20.230469 17.269531 23.429688 13.679688 C 24.46875 12.519531 24.460938 12.53125 24.25 12.300781 C 24.148438 12.191406 24.019531 12.101562 23.949219 12.101562 C 23.890625 12.101562 23.519531 12.449219 23.140625 12.871094 Z M 23.140625 12.871094 "/>
<path style=" stroke:none;fill-rule:nonzero;fill:rgb(0%,0%,0%);fill-opacity:1;" d="M 26.898438 12.800781 C 26.808594 12.980469 26.851562 13.070312 27.148438 13.429688 C 29.839844 16.558594 31.191406 18.929688 31.910156 21.78125 C 33.101562 26.5 31.25 31.5 26.46875 36.449219 L 25.410156 37.550781 L 24.449219 36.601562 C 23.921875 36.078125 23.238281 35.351562 22.929688 34.980469 C 22.628906 34.601562 22.300781 34.300781 22.210938 34.300781 C 22.011719 34.300781 21.800781 34.488281 21.800781 34.671875 C 21.800781 34.839844 22.730469 35.949219 23.730469 36.96875 L 24.53125 37.78125 L 24.160156 37.941406 C 22.839844 38.488281 20.339844 39.148438 18.421875 39.449219 C 17.089844 39.648438 14.519531 39.660156 13.261719 39.449219 C 11.308594 39.140625 9.488281 38.359375 7.878906 37.148438 C 5.769531 35.558594 3.710938 32.75 2.351562 29.609375 C 2.089844 29.011719 1.808594 28.488281 1.730469 28.460938 C 1.558594 28.390625 1.199219 28.558594 1.199219 28.699219 C 1.199219 28.839844 1.871094 30.449219 2.21875 31.148438 C 3.179688 33.058594 4.550781 35.03125 5.871094 36.378906 C 6.449219 36.96875 6.621094 37.210938 6.511719 37.238281 C 6.421875 37.269531 6.058594 37.339844 5.699219 37.398438 C 4.441406 37.621094 2.640625 38.128906 1.851562 38.488281 C 0.820312 38.96875 0.398438 39.378906 0.398438 39.890625 C 0.398438 40.371094 0.71875 40.800781 1.058594 40.800781 C 1.390625 40.800781 1.46875 40.539062 1.261719 40.171875 C 1.101562 39.890625 1.101562 39.859375 1.269531 39.679688 C 1.53125 39.390625 2.230469 39.058594 3.210938 38.761719 C 4.179688 38.460938 6.148438 38.039062 7 37.941406 C 7.53125 37.878906 7.578125 37.898438 8.148438 38.28125 C 10.210938 39.648438 12.300781 40.269531 15.148438 40.371094 C 17.179688 40.441406 18.789062 40.261719 20.898438 39.75 C 22.121094 39.449219 23.929688 38.878906 24.859375 38.488281 C 25.140625 38.378906 25.269531 38.398438 26.261719 38.78125 C 29.390625 39.949219 32.378906 40.480469 35.230469 40.371094 C 38.039062 40.269531 40.019531 39.679688 42.128906 38.328125 L 42.851562 37.871094 L 43.738281 37.988281 C 44.691406 38.128906 44.839844 38.089844 44.78125 37.691406 C 44.761719 37.5 44.660156 37.429688 44.351562 37.359375 C 44.128906 37.320312 43.890625 37.261719 43.820312 37.238281 C 43.730469 37.210938 44.070312 36.789062 44.679688 36.148438 C 46.210938 34.550781 47.75 32.148438 48.738281 29.820312 C 49.140625 28.898438 49.171875 28.679688 48.960938 28.511719 C 48.710938 28.300781 48.449219 28.539062 48.148438 29.269531 C 47.621094 30.539062 46.761719 32.148438 45.988281 33.300781 C 43.53125 36.960938 40.539062 38.980469 36.800781 39.5 C 35.679688 39.660156 33.199219 39.628906 31.941406 39.441406 C 30.230469 39.191406 27.78125 38.558594 26.378906 38.019531 L 26.121094 37.910156 L 27.058594 36.929688 C 29.050781 34.871094 30.410156 32.980469 31.449219 30.851562 C 32.058594 29.601562 32.699219 27.820312 32.699219 27.390625 C 32.699219 27.058594 33.269531 26.589844 34.308594 26.078125 C 36.171875 25.171875 37.851562 24.800781 40.199219 24.800781 C 42.480469 24.800781 44.179688 25.050781 46.640625 25.761719 C 47.910156 26.128906 48.101562 26.109375 48.101562 25.648438 C 48.101562 25.449219 47.988281 25.378906 47.328125 25.160156 C 45.808594 24.660156 43.710938 24.238281 41.699219 24.039062 L 41.050781 23.980469 L 41.078125 22.808594 C 41.109375 21.640625 40.898438 19.171875 40.671875 18.050781 C 40.558594 17.511719 40.519531 17.449219 40.269531 17.421875 C 39.871094 17.371094 39.839844 17.578125 40.039062 18.789062 C 40.160156 19.449219 40.238281 20.621094 40.269531 21.910156 L 40.320312 23.96875 L 39.238281 24.039062 C 37.238281 24.160156 35.460938 24.628906 33.859375 25.449219 L 33.011719 25.878906 L 33.011719 24.570312 C 33.011719 22.71875 32.710938 21.269531 31.960938 19.46875 C 31.761719 18.988281 31.601562 18.558594 31.601562 18.519531 C 31.601562 18.46875 32.21875 18.140625 32.980469 17.769531 C 34.171875 17.191406 35.859375 16.570312 37.550781 16.089844 C 37.980469 15.960938 38.050781 15.898438 38.078125 15.671875 C 38.128906 15.25 37.890625 15.238281 36.628906 15.578125 C 35.230469 15.96875 33.578125 16.609375 32.230469 17.289062 L 31.21875 17.789062 L 30.621094 16.820312 C 29.488281 14.980469 27.558594 12.601562 27.191406 12.601562 C 27.089844 12.601562 26.960938 12.691406 26.898438 12.800781 Z M 26.898438 12.800781 "/>
<path style=" stroke:none;fill-rule:nonzero;fill:rgb(0%,0%,0%);fill-opacity:1;" d="M 2.839844 17.308594 C 2.699219 17.460938 2.679688 17.550781 2.761719 17.679688 C 2.820312 17.769531 3.488281 18.148438 4.238281 18.519531 C 5.351562 19.070312 5.648438 19.179688 5.808594 19.101562 C 5.921875 19.039062 6 18.890625 6 18.75 C 6 18.53125 5.839844 18.421875 4.53125 17.800781 C 3.730469 17.410156 3.058594 17.101562 3.050781 17.101562 C 3.039062 17.101562 2.949219 17.191406 2.839844 17.308594 Z M 2.839844 17.308594 "/>
<path style=" stroke:none;fill-rule:nonzero;fill:rgb(0%,0%,0%);fill-opacity:1;" d="M 47.429688 17.800781 C 46.148438 18.421875 46 18.519531 46 18.738281 C 46 18.890625 46.078125 19.039062 46.191406 19.101562 C 46.351562 19.179688 46.640625 19.078125 47.761719 18.519531 C 48.511719 18.148438 49.179688 17.769531 49.238281 17.679688 C 49.320312 17.550781 49.300781 17.460938 49.160156 17.308594 C 49.050781 17.191406 48.941406 17.101562 48.910156 17.109375 C 48.878906 17.109375 48.210938 17.421875 47.429688 17.800781 Z M 47.429688 17.800781 "/>
<path style=" stroke:none;fill-rule:nonzero;fill:rgb(0%,0%,0%);fill-opacity:1;" d="M 48.519531 38.71875 C 48.308594 38.929688 48.390625 39.160156 48.78125 39.410156 C 49.730469 40.03125 48.921875 40.621094 46.199219 41.308594 C 43.140625 42.070312 38.21875 42.640625 32.351562 42.898438 C 31.03125 42.960938 29.890625 43.03125 29.828125 43.050781 C 29.640625 43.121094 29.671875 43.601562 29.871094 43.671875 C 30.089844 43.761719 34.890625 43.539062 37.25 43.351562 C 44.320312 42.75 48.601562 41.789062 49.679688 40.550781 C 50.191406 39.96875 50.050781 39.371094 49.269531 38.839844 C 48.871094 38.570312 48.699219 38.539062 48.519531 38.71875 Z M 48.519531 38.71875 "/>
<path style=" stroke:none;fill-rule:nonzero;fill:rgb(0%,0%,0%);fill-opacity:1;" d="M 4.941406 41.738281 C 4.789062 42.128906 4.941406 42.25 5.800781 42.421875 C 6.910156 42.640625 9.191406 42.960938 11 43.148438 C 15.871094 43.648438 25.46875 43.988281 25.78125 43.679688 C 25.941406 43.519531 25.929688 43.210938 25.78125 43.148438 C 25.710938 43.128906 23.808594 43.058594 21.550781 43 C 17.398438 42.898438 14.21875 42.730469 11.398438 42.441406 C 9.738281 42.28125 6.621094 41.851562 5.949219 41.699219 C 5.371094 41.558594 5 41.578125 4.941406 41.738281 Z M 4.941406 41.738281 "/>
</g>
</svg>
